<?xml version="1.0" encoding="UTF-8"?>
<svg id="Capa_2" data-name="Capa 2" xmlns="http://www.w3.org/2000/svg" xmlns:xlink="http://www.w3.org/1999/xlink" viewBox="0 0 461.68 68.55">
  <defs>
    <style>
      .cls-1 {
        mask: url(#mask);
      }

      .cls-2 {
        stroke: #35a8e0;
      }

      .cls-2, .cls-3, .cls-4, .cls-5 {
        fill: #fff;
        stroke-width: 1.68px;
      }

      .cls-2, .cls-4, .cls-5 {
        stroke-miterlimit: 10;
      }

      .cls-6 {
        fill: #76c2b0;
      }

      .cls-3 {
        stroke: #76c2b0;
        stroke-miterlimit: 16;
      }

      .cls-7 {
        mask: url(#mask-2);
      }

      .cls-8 {
        mask: url(#mask-3);
      }

      .cls-9 {
        mask: url(#mask-4);
      }

      .cls-10 {
        mask: url(#mask-5);
      }

      .cls-11 {
        mask: url(#mask-7);
      }

      .cls-12 {
        mask: url(#mask-6);
      }

      .cls-13 {
        mask: url(#mask-1);
      }

      .cls-14 {
        fill: #d8d8d8;
      }

      .cls-15 {
        fill: #82bc44;
      }

      .cls-16 {
        fill: #76c3b1;
      }

      .cls-17 {
        fill: url(#Degradado_sin_nombre_7);
      }

      .cls-18 {
        fill: url(#Degradado_sin_nombre_8);
      }

      .cls-19 {
        fill: #1d1d3b;
      }

      .cls-20 {
        opacity: .6;
      }

      .cls-4 {
        stroke: #5ca931;
      }

      .cls-21 {
        fill: url(#Degradado_sin_nombre_93);
      }

      .cls-22 {
        fill: url(#Degradado_sin_nombre_95);
      }

      .cls-23 {
        fill: url(#Degradado_sin_nombre_97);
      }

      .cls-24 {
        fill: url(#Degradado_sin_nombre_91);
      }

      .cls-25 {
        fill: url(#Degradado_sin_nombre_86);
      }

      .cls-26 {
        fill: url(#Degradado_sin_nombre_88);
      }

      .cls-5 {
        stroke: #1d1d3a;
      }
    </style>
    <mask id="mask" x="262.92" y="-.54" width="67.79" height="68.25" maskUnits="userSpaceOnUse">
      <g id="mask0_2062_1663" data-name="mask0 2062 1663">
        <rect class="cls-14" x="262.92" y="-.54" width="67.79" height="35.05"/>
      </g>
    </mask>
    <linearGradient id="Degradado_sin_nombre_8" data-name="Degradado sin nombre 8" x1="262.92" y1="-174.45" x2="329.79" y2="-174.45" gradientTransform="translate(0 -140.17) scale(1 -1)" gradientUnits="userSpaceOnUse">
      <stop offset="0" stop-color="#1d1d3b" stop-opacity=".1"/>
      <stop offset="1" stop-color="#1d1d3b" stop-opacity=".7"/>
    </linearGradient>
    <mask id="mask-1" x="262.92" y=".84" width="67.79" height="68.71" maskUnits="userSpaceOnUse">
      <g id="mask1_2062_1663" data-name="mask1 2062 1663">
        <rect class="cls-14" x="262.92" y="34.51" width="67.79" height="35.05"/>
      </g>
    </mask>
    <linearGradient id="Degradado_sin_nombre_7" data-name="Degradado sin nombre 7" x1="262.92" y1="-174.45" x2="329.79" y2="-174.45" gradientTransform="translate(0 -140.17) scale(1 -1)" gradientUnits="userSpaceOnUse">
      <stop offset="0" stop-color="#1d1d3b" stop-opacity=".15"/>
      <stop offset="1" stop-color="#1d1d3b" stop-opacity=".4"/>
    </linearGradient>
    <mask id="mask-2" x="393.98" y="-.54" width="67.79" height="68.25" maskUnits="userSpaceOnUse">
      <g id="mask0_2062_1677" data-name="mask0 2062 1677">
        <rect class="cls-14" x="393.98" y="-.54" width="67.79" height="35.05"/>
      </g>
    </mask>
    <linearGradient id="Degradado_sin_nombre_97" data-name="Degradado sin nombre 97" x1="393.98" y1="-174.45" x2="460.84" y2="-174.45" gradientTransform="translate(0 -140.17) scale(1 -1)" gradientUnits="userSpaceOnUse">
      <stop offset="0" stop-color="#5ca931" stop-opacity=".1"/>
      <stop offset="1" stop-color="#5ca931" stop-opacity=".7"/>
    </linearGradient>
    <mask id="mask-3" x="393.98" y=".84" width="67.79" height="68.71" maskUnits="userSpaceOnUse">
      <g id="mask1_2062_1677" data-name="mask1 2062 1677">
        <rect class="cls-14" x="393.98" y="34.51" width="67.79" height="35.05"/>
      </g>
    </mask>
    <linearGradient id="Degradado_sin_nombre_95" data-name="Degradado sin nombre 95" x1="393.98" y1="-174.45" x2="460.84" y2="-174.45" gradientTransform="translate(0 -140.17) scale(1 -1)" gradientUnits="userSpaceOnUse">
      <stop offset="0" stop-color="#5ca931" stop-opacity=".15"/>
      <stop offset="1" stop-color="#5ca931" stop-opacity=".4"/>
    </linearGradient>
    <mask id="mask-4" x=".84" y="-.54" width="67.79" height="68.25" maskUnits="userSpaceOnUse">
      <g id="mask0_2062_1663-2" data-name="mask0 2062 1663">
        <rect class="cls-14" x=".84" y="-.54" width="67.79" height="35.05"/>
      </g>
    </mask>
    <linearGradient id="Degradado_sin_nombre_93" data-name="Degradado sin nombre 93" x1=".84" y1="-174.45" x2="67.71" y2="-174.45" gradientTransform="translate(0 -140.17) scale(1 -1)" gradientUnits="userSpaceOnUse">
      <stop offset="0" stop-color="#35a8e0" stop-opacity=".1"/>
      <stop offset="1" stop-color="#35a8e0" stop-opacity=".7"/>
    </linearGradient>
    <mask id="mask-5" x=".84" y=".84" width="67.79" height="68.71" maskUnits="userSpaceOnUse">
      <g id="mask1_2062_1663-2" data-name="mask1 2062 1663">
        <rect class="cls-14" x=".84" y="34.51" width="67.79" height="35.05"/>
      </g>
    </mask>
    <linearGradient id="Degradado_sin_nombre_91" data-name="Degradado sin nombre 91" x1=".84" y1="-174.45" x2="67.71" y2="-174.45" gradientTransform="translate(0 -140.17) scale(1 -1)" gradientUnits="userSpaceOnUse">
      <stop offset="0" stop-color="#35a8e0" stop-opacity=".15"/>
      <stop offset="1" stop-color="#35a8e0" stop-opacity=".4"/>
    </linearGradient>
    <mask id="mask-6" x="131.89" y="-.54" width="67.79" height="68.25" maskUnits="userSpaceOnUse">
      <g id="mask0_2062_1663-3" data-name="mask0 2062 1663">
        <rect class="cls-14" x="131.89" y="-.54" width="67.79" height="35.05"/>
      </g>
    </mask>
    <linearGradient id="Degradado_sin_nombre_88" data-name="Degradado sin nombre 88" x1="131.89" y1="-174.45" x2="198.75" y2="-174.45" gradientTransform="translate(0 -140.17) scale(1 -1)" gradientUnits="userSpaceOnUse">
      <stop offset="0" stop-color="#76c2b0" stop-opacity=".1"/>
      <stop offset="1" stop-color="#76c2b0" stop-opacity=".7"/>
    </linearGradient>
    <mask id="mask-7" x="131.89" y=".84" width="67.79" height="68.71" maskUnits="userSpaceOnUse">
      <g id="mask1_2062_1663-3" data-name="mask1 2062 1663">
        <rect class="cls-14" x="131.89" y="34.51" width="67.79" height="35.05"/>
      </g>
    </mask>
    <linearGradient id="Degradado_sin_nombre_86" data-name="Degradado sin nombre 86" x1="131.89" y1="-174.45" x2="198.75" y2="-174.45" gradientTransform="translate(0 -140.17) scale(1 -1)" gradientUnits="userSpaceOnUse">
      <stop offset="0" stop-color="#76c2b0" stop-opacity=".15"/>
      <stop offset="1" stop-color="#76c2b0" stop-opacity=".4"/>
    </linearGradient>
  </defs>
  <g id="Capa_1-2" data-name="Capa 1">
    <g>
      <g>
        <circle class="cls-5" cx="296.35" cy="34.27" r="33.43"/>
        <g>
          <g class="cls-20">
            <g class="cls-1">
              <path class="cls-18" d="M296.35,67.71c-18.43,0-33.43-15-33.43-33.43S277.92.84,296.35.84s33.43,15,33.43,33.43-15,33.43-33.43,33.43ZM296.35,19.29c-8.26,0-14.99,6.72-14.99,14.99s6.72,14.99,14.99,14.99,14.99-6.72,14.99-14.99-6.72-14.99-14.99-14.99Z"/>
            </g>
            <g class="cls-13">
              <path class="cls-17" d="M296.35,67.71c-18.43,0-33.43-15-33.43-33.43S277.92.84,296.35.84s33.43,15,33.43,33.43-15,33.43-33.43,33.43ZM296.35,19.29c-8.26,0-14.99,6.72-14.99,14.99s6.72,14.99,14.99,14.99,14.99-6.72,14.99-14.99-6.72-14.99-14.99-14.99Z"/>
            </g>
          </g>
          <g>
            <path class="cls-19" d="M295.77,19.38c-.17.06-.45.23-.62.39-.88.78-1.31,1.13-1.92,1.52-1.79,1.2-3.82,1.86-6.34,2.09-1.13.1-1.3.15-1.94.57-.41.26-.76.67-1.01,1.16-.3.61-.3.69-.3,4.31s.04,4.28.33,6.07c.92,5.64,3.54,9.52,8.22,12.14,1.34.75,3.4,1.59,4.03,1.64.45.04.93-.11,2.31-.7,4.33-1.85,7.37-4.79,8.95-8.69.86-2.1,1.33-4.41,1.51-7.33.09-1.61.04-6.51-.08-6.92-.23-.8-.83-1.54-1.52-1.88-.47-.23-.7-.29-1.63-.37-3.27-.29-5.73-1.32-7.97-3.37-.28-.25-.62-.5-.76-.57-.37-.17-.9-.19-1.28-.06ZM296.94,20.96c2.4,2.22,5.2,3.39,8.81,3.7,1.05.09,1.51.35,1.84,1.05l.15.32.02,2.67c.02,2.82-.03,4.27-.22,5.77-.42,3.31-1.38,5.86-3.01,8.05-.91,1.21-2.42,2.58-3.87,3.49-1.27.8-3.8,1.93-4.31,1.93-.19,0-.52-.1-1.11-.34-6.11-2.46-9.24-6.52-10.07-13.1-.21-1.59-.25-2.81-.23-5.71l.02-2.75.15-.32c.33-.7.79-.96,1.84-1.05,3.63-.33,6.3-1.44,8.73-3.63.67-.6.7-.61,1.28-.08Z"/>
            <path class="cls-19" d="M294.14,27.97l-.2.2v3.35l-1.68.02c-1.85.02-1.87.02-2.04.38-.08.16-.09.49-.08,2.16l.02,1.96.16.16.16.16,1.72.03,1.71.03.03,1.71.03,1.72.16.16.16.16h4.1l.16-.16.16-.16.03-1.72.03-1.71,1.71-.03,1.72-.03.16-.16.16-.16.02-1.96c.01-1.67,0-1.99-.08-2.16-.17-.36-.19-.36-2.03-.38l-1.69-.02v-1.68c0-1.78,0-1.76-.29-1.96-.13-.09-.35-.1-2.13-.1h-1.99l-.2.2ZM297.45,30.59c0,.88.03,1.64.06,1.76.04.12.13.27.22.34.15.11.23.12,1.84.12h1.69v2.29h-1.58c-1.73,0-1.89.02-2.09.33-.09.15-.11.33-.12,1.82l-.02,1.66h-2.22l-.02-1.66c-.02-1.49-.03-1.68-.12-1.82-.2-.3-.36-.33-2.09-.33h-1.58v-2.29h1.69c1.61,0,1.69,0,1.84-.12.09-.07.18-.22.22-.34.03-.12.06-.88.06-1.76v-1.54h2.23v1.54Z"/>
          </g>
        </g>
      </g>
      <g>
        <circle class="cls-4" cx="427.41" cy="34.27" r="33.43"/>
        <g>
          <g class="cls-20">
            <g class="cls-7">
              <path class="cls-23" d="M427.41,67.71c-18.43,0-33.43-15-33.43-33.43S408.98.84,427.41.84s33.43,15,33.43,33.43-15,33.43-33.43,33.43ZM427.41,19.29c-8.26,0-14.99,6.72-14.99,14.99s6.72,14.99,14.99,14.99,14.99-6.72,14.99-14.99-6.72-14.99-14.99-14.99Z"/>
            </g>
            <g class="cls-8">
              <path class="cls-22" d="M427.41,67.71c-18.43,0-33.43-15-33.43-33.43S408.98.84,427.41.84s33.43,15,33.43,33.43-15,33.43-33.43,33.43ZM427.41,19.29c-8.26,0-14.99,6.72-14.99,14.99s6.72,14.99,14.99,14.99,14.99-6.72,14.99-14.99-6.72-14.99-14.99-14.99Z"/>
            </g>
          </g>
          <g>
            <path class="cls-19" d="M424.93,19.34c-.37.09-.93.41-1.19.7-.13.15-.33.45-.44.67-.19.4-.19.42-.21,1.48l-.02,1.07-.29.06c-.88.19-1.77.62-2.63,1.28-.49.37-.74.51-1.1.63-1.22.41-2.15,1.34-2.53,2.53-.14.43-.17.62-.19,1.47-.04,1.46.14,2.46.62,3.52.51,1.09,1.45,2.19,2.43,2.8.28.18.73.53,1,.77.26.24.54.48.63.53.12.08.15.15.15.38,0,.53-.27,1.03-.7,1.31-.07.04-1.04.43-2.16.86-2.33.91-2.68,1.07-3.34,1.57-1.15.87-1.92,2.03-2.31,3.45-.15.57-.16.65-.18,2.72l-.02,2.13h10.15s10.15-.03,10.15-.03l.27-.15c.33-.17,4.9-4.7,5.3-5.24.75-1.04.94-2.34.52-3.55-.88-2.58-4.03-3.46-6.16-1.74l-.38.31-.37-.31c-1.23-.99-2.85-1.17-4.25-.47-.2.1-.47.26-.59.36-.26.21-.31.19-.67-.18-.26-.27-.41-.65-.41-1.03,0-.23.03-.29.2-.43.1-.09.37-.33.59-.53.22-.21.6-.5.86-.65.25-.16.6-.42.78-.57l.31-.28,5.94-.03,5.93-.03.46-.22c.55-.27.89-.62,1.15-1.19l.19-.41v-11.79l-.19-.41c-.27-.56-.6-.91-1.15-1.19l-.46-.22h-7.71c-4.53-.02-7.81,0-7.95.04ZM440.46,20.31c.33.1.83.6.93.93.1.36.1,11.18,0,11.54-.1.35-.6.83-.96.93-.21.06-1.52.07-5.54.06l-5.27-.02.27-.45.27-.45,4.86-.03c4.79-.03,4.87-.03,5.03-.16.09-.07.22-.2.29-.29.13-.16.13-.21.13-5.36s0-5.19-.13-5.36c-.07-.09-.2-.22-.29-.29-.16-.13-.19-.13-7.29-.13s-7.13,0-7.29.13c-.37.27-.42.4-.44,1.15-.02.68-.02.7-.15.66-.07-.02-.29-.04-.48-.04h-.35v-.82c0-.47.03-.93.07-1.08.09-.31.6-.83.89-.93.32-.1,15.1-.1,15.44,0ZM439.52,24.35v2.18h-2.75l-.34.86-.34.86-1.25-2.5c-.68-1.37-1.26-2.49-1.27-2.49s-.28,1.06-.61,2.36l-.59,2.36h-1.79l-.13-.38c-.07-.21-.24-.59-.37-.85-.77-1.51-2.18-2.73-3.73-3.25l-.38-.13v-1.2h13.54v2.18ZM425.65,24.29c1.97.52,3.48,2.05,4.03,4.06.11.44.14.65.13,1.48,0,1.17-.11,1.67-.57,2.6-.27.55-.7,1.22-.76,1.17-.01-.01.04-.24.12-.5.18-.63.3-1.55.26-2.1-.05-.82-.47-1.46-1.19-1.81-.36-.18-.45-.2-.92-.2-.49,0-.57.02-1.75.48-.68.26-1.45.55-1.71.65l-.47.17-.18-.34c-.39-.77-.85-1.18-1.54-1.38-1.05-.3-2.21.26-2.68,1.29-.29.62-.25,2.12.07,3.25.08.27.13.49.12.5-.05.05-.48-.62-.76-1.17-.45-.92-.55-1.37-.59-2.63-.02-.84-.01-1.14.07-1.48.26-1.1,1.1-1.95,2.23-2.24.26-.07.46-.18.79-.45,1.04-.85,1.83-1.23,2.9-1.44.61-.11,1.75-.07,2.37.1ZM435.04,28.32l1.14,2.29.08-.21c.05-.11.33-.82.62-1.56l.54-1.34h2.09v4.35h-8.99l.11-.47c.1-.36.13-.69.13-1.45v-.99s1.18-.01,1.18-.01l1.18-.02.36-1.44c.2-.79.37-1.43.38-1.43s.54,1.03,1.17,2.28ZM420.9,29.49c.41.11.65.39,1.06,1.22l.39.78.47-.18c.25-.1,1.17-.44,2.03-.76.86-.32,1.67-.6,1.8-.62.47-.07.99.26,1.18.74.08.22.1.39.07.86-.07,1.08-.45,2.24-1.05,3.14-.36.53-1.14,1.32-1.7,1.69-.56.37-1.35.74-1.58.74-.08,0-.36-.09-.6-.2-1.33-.58-2.43-1.64-3.09-2.97-.41-.83-.6-1.6-.64-2.61-.03-.72-.02-.81.1-1.08.18-.39.28-.5.64-.67.33-.16.6-.18.94-.08ZM422.78,37.88c.68.3.89.3,1.63-.02.31-.13.59-.24.62-.22.02.01.04.09.04.16,0,.28.42.99.76,1.29l.33.29-.15.25c-.25.43-.46,1.15-.5,1.72-.05.83.18,1.7.65,2.4.1.16,1.15,1.25,2.32,2.42l2.12,2.13h-13.33v-4.84h-.97v4.84h-2.91l.02-1.59c.02-1.38.05-1.64.16-2.07.4-1.48,1.4-2.71,2.73-3.39.18-.09,1.26-.53,2.4-.97,1.14-.44,2.17-.87,2.3-.95.13-.08.33-.26.46-.41.25-.27.59-.92.59-1.12,0-.15.06-.22.15-.18.04.02.3.13.58.26ZM430.09,38.71c.58.14.94.36,1.6.99l.59.57.59-.57c.65-.63,1.01-.85,1.59-.99,1.02-.24,2.03.05,2.76.79.95.96,1.13,2.42.44,3.55-.27.45-4.98,5.16-5.21,5.21-.1.02-.24.02-.33,0-.24-.05-4.95-4.76-5.22-5.21-.69-1.14-.5-2.62.45-3.56.75-.74,1.73-1.02,2.75-.78Z"/>
            <path class="cls-15" d="M431.78,43.22v2.18h.97v-4.35h-.97v2.18Z"/>
            <path class="cls-15" d="M435.17,40.06c0,.48,0,.48.17.53.3.07.54.27.67.54.25.51.11.88-.56,1.55l-.46.45.31.32c.18.18.35.32.39.32.14,0,1.07-1.05,1.23-1.39.23-.48.22-1.16-.01-1.64-.28-.58-.86-1.02-1.48-1.12l-.25-.04v.49Z"/>
            <path class="cls-15" d="M433.94,44.17l-.41.41.33.33.33.33.41-.41.41-.41-.33-.33-.33-.33-.41.41Z"/>
            <path class="cls-15" d="M431.94,46.51c-.3.3-.09.82.33.82.25,0,.48-.24.48-.48s-.24-.48-.48-.48c-.11,0-.24.05-.33.15Z"/>
          </g>
        </g>
      </g>
      <g>
        <circle class="cls-2" cx="34.27" cy="34.27" r="33.43"/>
        <g class="cls-20">
          <g class="cls-9">
            <path class="cls-21" d="M34.27,67.71C15.84,67.71.84,52.71.84,34.27S15.84.84,34.27.84s33.43,15,33.43,33.43-15,33.43-33.43,33.43ZM34.27,19.29c-8.26,0-14.99,6.72-14.99,14.99s6.72,14.99,14.99,14.99,14.99-6.72,14.99-14.99-6.72-14.99-14.99-14.99Z"/>
          </g>
          <g class="cls-10">
            <path class="cls-24" d="M34.27,67.71C15.84,67.71.84,52.71.84,34.27S15.84.84,34.27.84s33.43,15,33.43,33.43-15,33.43-33.43,33.43ZM34.27,19.29c-8.26,0-14.99,6.72-14.99,14.99s6.72,14.99,14.99,14.99,14.99-6.72,14.99-14.99-6.72-14.99-14.99-14.99Z"/>
          </g>
        </g>
        <g>
          <path class="cls-19" d="M33.15,19.32c-.18.08-12.6,9.54-12.8,9.76-.1.1-.14.24-.14.41,0,.22.12.41,1,1.59l1,1.34.28.02c.2.01.33-.02.47-.12l.2-.14v13.12l.16.18.16.18,6.99.02h6.99s2.11,1.78,2.11,1.78c1.17.97,2.18,1.78,2.25,1.79.08.01.2.01.28,0,.15-.02,3.67-2.92,4.34-3.58,1.12-1.09,1.72-2.41,1.86-4.11.04-.45.06-1.75.05-2.89-.02-1.8-.03-2.09-.13-2.24-.08-.13-.64-.39-2.37-1.14l-2.27-.98v-1.04c0-.57.03-1.04.06-1.04s.09.04.13.09c.12.14.41.17.63.07.13-.07.51-.52,1.13-1.4.8-1.12.93-1.34.93-1.55,0-.31-.08-.39-1.66-1.57l-1.22-.92v-3c0-3.08-.01-3.18-.26-3.37-.14-.1-4.08-.12-4.27-.02-.25.14-.3.33-.33,1.5l-.03,1.14-2.53-1.94c-1.4-1.06-2.6-1.95-2.69-1.97-.09-.02-.22,0-.3.03ZM39.59,25.42c2.85,2.17,5.24,4.01,5.31,4.07.12.11.11.13-.35.77-.26.36-.49.67-.52.69-.03.02-2.37-1.76-5.2-3.97-2.83-2.2-5.22-4.03-5.31-4.07-.11-.04-.22-.05-.34,0-.09.03-2.49,1.87-5.33,4.07-2.83,2.2-5.17,4.01-5.18,4.01-.04,0-.96-1.23-1-1.34-.02-.05.52-.51,1.43-1.2.81-.61,3.44-2.62,5.85-4.46l4.39-3.35.53.41c.3.22,2.87,2.19,5.71,4.37ZM42.38,23.86v2.16l-.28-.2c-.16-.1-.7-.52-1.2-.91l-.92-.71-.02-1.26v-1.26s1.2,0,1.2,0h1.21v2.17ZM38.4,28.17l3.92,3.05v2.52l-.24-.03c-.21-.03-.59.12-2.47.93-1.22.52-2.22.95-2.23.94-.01-.01-.09-.2-.17-.43-.19-.52-.68-1.21-1.13-1.61-.4-.35-1.23-.78-1.79-.93-.5-.12-1.39-.12-1.94,0-1.36.31-2.51,1.38-3,2.76l-.18.51-.02,4.28-.02,4.28h-4.78v-13.22s4.5-3.49,4.5-3.49l4.5-3.5.57.45c.31.24,2.34,1.81,4.49,3.48ZM34.19,33.82c.91.28,1.61.94,1.95,1.85l.14.38-.26.13c-.14.07-.29.19-.33.26-.04.09-.07,1.08-.07,2.79,0,2.18.02,2.76.1,3.17.12.62.36,1.31.58,1.7.09.16.16.31.16.32s-1.38.03-3.08.03h-3.08v-3.96c0-4.08.02-4.43.27-5.02.58-1.36,2.19-2.09,3.61-1.65ZM44.52,36.04l2.55,1.1v2.49c0,2.43,0,2.5-.15,2.98-.24.75-.64,1.46-1.11,1.97-.38.41-3.75,3.28-3.85,3.28s-3.58-2.97-3.91-3.33c-.45-.49-.86-1.26-1.06-1.95-.14-.51-.15-.61-.15-2.98v-2.45l2.53-1.1c1.39-.6,2.55-1.1,2.57-1.1.02,0,1.19.49,2.59,1.1Z"/>
          <path class="cls-16" d="M43.79,38.6c-.1.07-.73.66-1.38,1.31l-1.17,1.18-.6-.58c-.51-.49-.63-.59-.81-.59-.3,0-.46.1-.57.37-.14.34-.02.54.91,1.45,1.16,1.14.93,1.2,2.86-.72.84-.83,1.57-1.61,1.63-1.71.14-.25.02-.6-.24-.73-.25-.13-.39-.12-.62.03Z"/>
        </g>
      </g>
      <g>
        <circle class="cls-3" cx="165.32" cy="34.27" r="33.43"/>
        <g>
          <g class="cls-20">
            <g class="cls-12">
              <path class="cls-26" d="M165.32,67.71c-18.43,0-33.43-15-33.43-33.43S146.89.84,165.32.84s33.43,15,33.43,33.43-15,33.43-33.43,33.43ZM165.32,19.29c-8.26,0-14.99,6.72-14.99,14.99s6.72,14.99,14.99,14.99,14.99-6.72,14.99-14.99-6.72-14.99-14.99-14.99Z"/>
            </g>
            <g class="cls-11">
              <path class="cls-25" d="M165.32,67.71c-18.43,0-33.43-15-33.43-33.43S146.89.84,165.32.84s33.43,15,33.43,33.43-15,33.43-33.43,33.43ZM165.32,19.29c-8.26,0-14.99,6.72-14.99,14.99s6.72,14.99,14.99,14.99,14.99-6.72,14.99-14.99-6.72-14.99-14.99-14.99Z"/>
            </g>
          </g>
          <g>
            <path class="cls-19" d="M169.87,22.01c-3.37,1.86-3.25,1.78-3.34,1.99-.09.22-.05,5.8.05,6.32.1.56.29,1.23.47,1.71.09.25.17.46.17.47,0,.01-1.2.03-2.66.05-2.93.03-2.99.03-3.72.4-.59.29-.97.7-2.41,2.59-.75.99-1.37,1.81-1.38,1.82,0,0-1.05.3-2.33.65-1.35.37-2.48.71-2.69.81-.44.21-.97.77-1.19,1.23-.24.5-.29.94-.26,2.25.03,1.23.06,1.42.37,1.97.19.35.7.84,1.07,1.02.39.2.91.33,1.29.33h.3l.1.28c.28.86,1.15,1.7,2.06,2.02.5.18,1.44.22,1.94.09.94-.24,1.82-.95,2.2-1.76.12-.24.22-.48.24-.54.03-.09.32-.1,4.99-.1s4.96,0,5,.1c.27.82.94,1.61,1.66,1.99.82.43,1.76.52,2.61.25.99-.31,1.87-1.14,2.17-2.05l.1-.28h.47c1.34,0,2.33-.67,2.78-1.88.09-.23.11-.52.13-1.6.03-1.76-.06-2.2-.62-2.9-.31-.4-.68-.62-2.02-1.22-.65-.29-1.22-.57-1.27-.62-.05-.06-.23-.31-.39-.56l-.29-.47.47-.33c.26-.18.76-.62,1.11-.97,1.27-1.28,2.07-2.78,2.46-4.62.13-.59.13-.8.16-3.45l.02-2.82-.13-.2c-.11-.17-.63-.46-3.24-1.86-2.6-1.38-3.15-1.65-3.34-1.65s-.7.26-3.08,1.57ZM175.69,23.29l2.59,1.38v2.4c0,2.67-.03,3.03-.37,4.07-.61,1.83-1.83,3.31-3.55,4.3-.34.2-1.31.62-1.42.62-.05,0-.33-.12-.62-.25-2.35-1.11-3.91-3.15-4.38-5.69-.09-.46-.1-.94-.1-2.99v-2.44s2.53-1.4,2.53-1.4c1.39-.77,2.58-1.4,2.63-1.39.05,0,1.26.63,2.69,1.39ZM168.32,34.31c.67.87,1.71,1.78,2.65,2.32.21.13.71.37,1.12.55.85.37.89.37,1.63.05.25-.11.5-.2.52-.2.03,0,.24.29.47.65.22.36.47.71.54.77.07.06.74.4,1.49.74,1.43.65,1.61.76,1.85,1.21.12.21.13.31.13,1.47,0,1.39-.03,1.54-.37,1.92-.29.33-.58.44-1.11.44-.44,0-.45,0-.48-.16-.29-1.35-1.34-2.41-2.65-2.69-.81-.17-1.59-.05-2.34.36-.8.43-1.49,1.34-1.67,2.19l-.06.31h-9.77l-.07-.33c-.15-.68-.61-1.42-1.16-1.84-1.11-.85-2.44-.99-3.68-.38-.84.41-1.56,1.33-1.76,2.22-.06.3-.07.31-.29.32-.33.03-.63-.08-.9-.32-.41-.37-.45-.51-.45-1.86,0-1.02.02-1.21.11-1.41.11-.25.45-.58.69-.67.08-.03,1.22-.35,2.54-.71,1.31-.36,2.46-.7,2.53-.76.08-.06.81-.97,1.62-2.03,1.01-1.32,1.56-1.99,1.76-2.14.51-.39.53-.39,3.85-.39h2.97s.31.38.31.38ZM157.33,42.71c.55.09,1.15.56,1.41,1.12.21.46.24,1.11.06,1.58-.18.47-.7,1-1.16,1.17-1.07.4-2.28-.15-2.67-1.2-.14-.38-.13-1.04.03-1.45.23-.61.88-1.14,1.54-1.25.28-.05.36-.04.79.03ZM174.18,42.81c.17.06.43.22.58.36,1.08.97.86,2.69-.43,3.33-.51.25-1.14.29-1.64.1-.59-.22-1.08-.78-1.26-1.4-.1-.38-.05-1,.12-1.34.48-1,1.57-1.44,2.63-1.05Z"/>
            <path class="cls-6" d="M175.41,27.13c-.11.07-.85.67-1.64,1.31-.79.64-1.47,1.19-1.51,1.22-.04.03-.25-.17-.65-.65-.63-.74-.79-.86-1.13-.86-.31,0-.6.31-.6.63,0,.15.05.31.12.4.28.39,1.63,1.94,1.78,2.03.2.13.52.13.7,0,.34-.24,3.76-3.04,3.86-3.18.07-.09.12-.23.12-.39,0-.54-.59-.84-1.04-.53Z"/>
          </g>
        </g>
      </g>
    </g>
  </g>
</svg>