<svg xmlns="http://www.w3.org/2000/svg" xmlns:xlink="http://www.w3.org/1999/xlink" width="530" height="120.971" viewBox="0 0 530 120.971">
  <defs>
    <clipPath id="clip-path">
      <rect id="Rectángulo_10" data-name="Rectángulo 10" width="530" height="120.971" transform="translate(0 0)" fill="none"/>
    </clipPath>
  </defs>
  <g id="Grupo_76" data-name="Grupo 76" transform="translate(0 0)" clip-path="url(#clip-path)">
    <g id="Grupo_90" data-name="Grupo 90">
      <path id="Trazado_56" data-name="Trazado 56" d="M181.675,65.714a7.05,7.05,0,0,1-2.6-.673,10.181,10.181,0,0,1-4.356-3.792,4.958,4.958,0,0,1-1.106-2.721,2.534,2.534,0,0,1,.9-2.127,3.619,3.619,0,0,1,1.19-.3l.1-.005c.093,0,.273,0,.451.424l.162.39c.228.549.607,1.458.635,1.515a.447.447,0,0,1,.022.437,1.768,1.768,0,0,1-.256.425l-.086.1c-.133.159-.221.265-.3.346a.569.569,0,0,0-.172.246l-.014.049.009.12.061.123a8.721,8.721,0,0,0,3.354,2.98c.361.159.417.159.458.159h.136l.153-.151c.1-.11.632-.729.819-1.006a.339.339,0,0,1,.293-.19.873.873,0,0,1,.273.066c.072.026.4.163,1.842.871.256.124.365.18.413.258a2.146,2.146,0,0,1-.153,1.207,2.577,2.577,0,0,1-1.733,1.21l-.107.011c-.11.009-.234.022-.387.022" fill="#fff"/>
      <path id="Trazado_57" data-name="Trazado 57" d="M169.722,66.249l-.069-.118a10.38,10.38,0,0,1-1.444-5.284,10.5,10.5,0,1,1,5.547,9.206l-.112-.06-5.826,1.852Zm4.139,1.954a8.8,8.8,0,1,0-4-7.356,8.694,8.694,0,0,0,1.691,5.165l-1.117,3.28Z" fill="#fff"/>
    </g>
  </g>
</svg>
